<svg height="16" viewBox="0 0 4.2333332 4.2333333" width="16" xmlns="http://www.w3.org/2000/svg"><path d="m2.6458333 1.3229167v2.6458333h.5291667v-2.6458333c0-.1461254-.118458-.2645834-.2645833-.2645834h-.0000001c-.1461253 0-.2645833.118458-.2645833.2645834zm.79375-.79375003v3.43958333h.5291667v-3.43958333c0-.14612532-.118458-.2645833-.2645833-.2645833h-.0000001c-.1461253 0-.2645833.11845798-.2645833.2645833zm-1.5875 2.11666663v1.3229167h.5291667v-1.3229167c0-.1461253-.118458-.2645833-.2645833-.2645833h-.0000001c-.1461253 0-.2645833.118458-.2645833.2645833zm-.79375.5291667v.79375h.5291667v-.79375c0-.1461253-.118458-.2645833-.2645833-.2645833h-.0000001c-.1461253 0-.2645833.118458-.2645833.2645833zm-.79374997-2.1166667v2.9104167h.52916667v-2.9104167c0-.14612527-.118458-.26458327-.26458333-.26458327h-.00000001c-.14612533 0-.26458333.118458-.26458333.26458327z" fill="#8da5f3" stroke-width=".264583"/></svg>